<svg xmlns="http://www.w3.org/2000/svg" width="56" height="56" fill="none"><g clip-path="url(#a)"><path fill="#D9D9D9" fill-opacity=".01" d="M0 0h56v56H0z"/><path fill="#000" d="M3.906 44.424C1.98 44.424 0 45.967 0 48.667c0 2.47 1.74 4.214 3.906 4.214 1.786 0 2.583-1.2 2.583-1.2v.523c0 .247.233.523.523.523h1.291v-8.119H6.49v1.03s-.803-1.214-2.583-1.214Zm.323 1.66c1.585 0 2.416 1.394 2.416 2.583 0 1.324-.987 2.582-2.413 2.582-1.192 0-2.386-.965-2.386-2.6 0-1.475 1.028-2.565 2.383-2.565ZM10.825 52.727a.508.508 0 0 1-.523-.523v-7.596h1.815v1.005c.41-.618 1.214-1.192 2.447-1.192 2.015 0 3.088 1.607 3.088 3.109v5.197h-1.26a.556.556 0 0 1-.554-.554V47.93c0-.832-.51-1.843-1.69-1.843-1.273 0-2.031 1.203-2.031 2.335v4.306h-1.292ZM22.941 44.424c-1.925 0-3.905 1.543-3.905 4.243 0 2.47 1.74 4.214 3.905 4.214 1.787 0 2.583-1.2 2.583-1.2v.523c0 .247.234.523.523.523h1.292V40.549h-1.815v5.09s-.803-1.215-2.583-1.215Zm.323 1.66c1.585 0 2.417 1.394 2.417 2.583 0 1.324-.987 2.582-2.413 2.582-1.192 0-2.386-.965-2.386-2.6 0-1.475 1.027-2.565 2.382-2.565ZM29.86 52.727a.508.508 0 0 1-.522-.523v-7.596h1.814v1.353c.312-.758.986-1.445 2.184-1.445.333 0 .645.061.645.061v1.876s-.39-.154-.86-.154c-1.274 0-1.969 1.204-1.969 2.336v4.092H29.86ZM44.99 52.727a.508.508 0 0 1-.522-.523v-7.596h1.814v8.119h-1.291ZM51.602 44.424c-1.925 0-3.905 1.543-3.905 4.243 0 2.47 1.74 4.214 3.905 4.214 1.787 0 2.584-1.2 2.584-1.2v.523c0 .247.233.523.522.523H56V40.549h-1.815v5.09s-.803-1.215-2.583-1.215Zm.324 1.66c1.585 0 2.416 1.394 2.416 2.583 0 1.324-.987 2.582-2.413 2.582-1.192 0-2.386-.965-2.386-2.6 0-1.475 1.027-2.565 2.383-2.565ZM45.362 42.857a1.2 1.2 0 1 0 0-2.399 1.2 1.2 0 0 0 0 2.4ZM38.766 44.42c-2.016 0-4.232 1.506-4.232 4.233 0 2.485 1.887 4.228 4.228 4.228 2.885 0 4.293-2.32 4.293-4.212 0-2.323-1.814-4.248-4.289-4.248Zm.007 1.695c1.394 0 2.435 1.124 2.435 2.543 0 1.444-1.105 2.557-2.43 2.557-1.232 0-2.429-1.002-2.429-2.533 0-1.556 1.138-2.567 2.424-2.567Z"/><path fill="#32DE84" d="m41.666 13.455 4.643-8.041a.943.943 0 0 0-.342-1.286.93.93 0 0 0-1.279.341l-4.703 8.145c-3.588-1.638-7.627-2.552-11.971-2.552s-8.383.914-11.971 2.553l-4.704-8.146a.938.938 0 0 0-1.285-.34.938.938 0 0 0-.341 1.285l4.642 8.041C6.35 17.793.928 25.895.032 35.381h55.963c-.895-9.486-6.317-17.588-14.329-21.926Zm-26.5 14.067a2.347 2.347 0 0 1 0-4.69 2.347 2.347 0 0 1 0 4.69Zm25.69 0a2.347 2.347 0 0 1 0-4.69 2.347 2.347 0 0 1 0 4.69Z"/></g><defs><clipPath id="a"><path fill="#fff" d="M0 0h56v56H0z"/></clipPath></defs></svg>