<svg xmlns="http://www.w3.org/2000/svg" width="56" height="56" fill="none"><g clip-path="url(#a)"><path fill="#D9D9D9" fill-opacity=".01" d="M0 0h56v56H0z"/><path fill="#0C544C" d="M51.6621 11.3625c-1.24 0-2.2446-1.0046-2.2446-2.2445 0-1.24 1.0046-2.2446 2.2446-2.2446 1.2399 0 2.2445 1.0047 2.2445 2.2446 0 1.2399-1.0046 2.2445-2.2445 2.2445ZM29.3526 49.7366c-1.2399 0-2.2446-1.0046-2.2446-2.2445s1.0047-2.2445 2.2446-2.2445c1.2399 0 2.2445 1.0046 2.2445 2.2445s-1.0046 2.2445-2.2445 2.2445ZM51.6621 5.0271c-2.2717 0-4.109 1.8418-4.109 4.109 0 .4842.1222.9367.2756 1.3666L28.5511 43.537c-1.8644.3906-3.2898 1.964-3.2898 3.9461 0 2.2716 1.8418 4.1089 4.1089 4.1089 2.2672 0 4.109-1.8418 4.109-4.1089 0-.4571-.1222-.8734-.258-1.2852l19.3681-33.1701c1.8056-.4331 3.1767-1.9821 3.1767-3.9189C55.766 6.8372 53.9242 5 51.6571 5"/><path fill="#073551" d="M34.9187 11.3625c-1.24 0-2.2446-1.0046-2.2446-2.2445 0-1.24 1.0046-2.2446 2.2446-2.2446 1.2399 0 2.2445 1.0047 2.2445 2.2446 0 1.2399-1.0046 2.2445-2.2445 2.2445ZM12.6092 49.7366c-1.2399 0-2.2446-1.0046-2.2446-2.2445s1.0047-2.2445 2.2446-2.2445c1.2399 0 2.2445 1.0046 2.2445 2.2445s-1.0046 2.2445-2.2445 2.2445ZM34.9187 5.0271c-2.2717 0-4.109 1.8418-4.109 4.109 0 .4842.1222.9367.2756 1.3666L11.8078 43.537c-1.8644.3906-3.2944 1.964-3.2944 3.9461 0 2.2716 1.8417 4.1089 4.1089 4.1089 2.2717 0 4.1089-1.8418 4.1089-4.1089 0-.4571-.1222-.8734-.2579-1.2852l19.3681-33.1701c1.8055-.4331 3.1767-1.9821 3.1767-3.9189C39.0181 6.8372 37.1763 5 34.9092 5M4.147 18.2409c1.2398 0 2.2445 1.0046 2.2445 2.2445s-1.0046 2.2445-2.2446 2.2445c-1.2399 0-2.2445-1.0046-2.2445-2.2445s1.0046-2.2445 2.2445-2.2445Zm0 6.3353c2.2716 0 4.1089-1.8417 4.1089-4.1089 0-.4525-.1236-.8734-.2598-1.2852-.543-1.6336-2.0364-2.8282-3.851-2.8282-.29 0-.543.1077-.819.166-1.8644.3887-3.29 1.964-3.29 3.9415 0 2.2717 1.8419 4.109 4.109 4.109M1.8843 34.8486c0-1.24 1.0046-2.2446 2.2445-2.2446 1.24 0 2.2446 1.0046 2.2446 2.2446 0 1.2399-1.0046 2.2445-2.2446 2.2445-1.2399 0-2.2445-1.0046-2.2445-2.2445Zm6.3354 0c0-.4571-.1236-.8734-.2598-1.2852-.543-1.6336-2.0363-2.8283-3.851-2.8283-.29 0-.543.1077-.819.1643C1.4255 31.2899 0 32.8633 0 34.8454c0 2.2671 1.8418 4.1089 4.109 4.1089 2.2716 0 4.1089-1.8418 4.1089-4.1089"/></g><defs><clipPath id="a"><path fill="#fff" d="M0 0h56v56H0z"/></clipPath></defs></svg>