<svg xmlns="http://www.w3.org/2000/svg" width="56" height="56" fill="none"><g clip-path="url(#a)"><path fill="#D9D9D9" fill-opacity=".01" d="M0 0h56v56H0z"/><path fill="#512BD4" d="M48 0H8C3.58172 0 0 3.58172 0 8v40c0 4.4183 3.58172 8 8 8h40c4.4183 0 8-3.5817 8-8V8c0-4.41828-3.5817-8-8-8Z"/><path fill="#fff" d="M9.981 35.7777c-.39595 0-.73252-.1319-1.00969-.3958-.27718-.2706-.41577-.592-.41577-.9641 0-.379.13859-.7037.41577-.9744.27717-.2707.61374-.406 1.00969-.406.4026 0 .7424.1353 1.0196.406.2838.2707.4257.5954.4257.9744 0 .3721-.1419.6935-.4257.9641-.2772.2639-.617.3958-1.0196.3958ZM25.81 35.5545h-2.5738l-6.7808-10.6976c-.1715-.2707-.3135-.5515-.4256-.8425h-.0595c.0528.3113.0792.9778.0792 1.9994v9.5407h-2.2768V21h2.742l6.5533 10.4439c.2771.4331.4553.7308.5345.8932h.0396c-.066-.3857-.099-1.0386-.099-1.9589V21H25.81v14.5545ZM36.8972 35.5545h-7.9687V21h7.652v2.0503h-5.2959v4.1206h4.8802v2.0401h-4.8802v4.3034h5.6126v2.0401ZM48.2222 23.0503h-4.0784v12.5042h-2.356V23.0503h-4.0685V21h10.5029v2.0503Z"/></g><defs><clipPath id="a"><path fill="#fff" d="M0 0h56v56H0z"/></clipPath></defs></svg>