<svg xmlns="http://www.w3.org/2000/svg" width="56" height="56" fill="none"><g clip-path="url(#a)"><path fill="#D9D9D9" fill-opacity=".01" d="M0 0h56v56H0z"/><path fill="#0061D5" d="M41.3909 0c8.0682 0 14.6087 6.54054 14.6087 14.6087v26.7826C55.9996 49.4595 49.4591 56 41.3909 56H14.6083C6.54017 56-.00036621 49.4595-.00036621 41.3913V14.6087C-.00036621 6.54054 6.54017 0 14.6083 0h26.7826Z"/><path fill="#fff" d="M41.3909 2.43481H14.6083c-6.60951 0-11.98879 5.26726-12.16924 11.83319l-.00467.3407v26.7826c0 6.6095 5.26725 11.9888 11.83311 12.1693l.3408.0047h26.7826c6.6095 0 11.9888-5.2673 12.1693-11.8332l.0046-.3408V14.6087c0-6.60948-5.2672-11.98876-11.8331-12.16921l-.3408-.00468Z"/><path fill="#0061D5" d="M32.3199 17.0435c.7274 0 1.4344.2135 2.0325.6133l.219.1586.245.2125 7.9902 7.5858c1.2207 1.1904 1.3543 3.0227.3522 4.3686l-.1437.1804-.2207.2353-7.9745 7.5708c-.6609.6322-1.5611.9877-2.5.9877-.7281 0-1.4351-.2139-2.0347-.6154l-.2197-.1593-.2478-.2151-1.8228-1.751-1.8579 1.7552c-.5356.5099-1.2275.8393-1.9696.947l-.2805.0299-.2554.0087c-.7294 0-1.4377-.2133-2.0389-.614l-.2202-.1589-.2486-.2148-7.9243-7.5805c-1.2264-1.1901-1.3619-3.025-.3573-4.3694l.1441-.1802.2197-.2334 7.92-7.5762c.6629-.6311 1.5649-.9856 2.5055-.9856.7294 0 1.4378.2133 2.0389.6139l.2203.159.2485.2147 1.8324 1.753 1.8483-1.7529c.5341-.5109 1.2244-.8411 1.9651-.949l.28-.03.2549-.0087Z"/><path fill="#E5EFFA" d="M32.3199 19.5125c-.1517 0-.2998.0341-.4242.0922l-.1158.0656-.1353.1092-1.8472 1.7502 4.2508 4.0672c1.2627 1.1849 1.4042 3.0506.3717 4.3956l-.1481.1801-.2239.2306-1.3064 1.2252c-.5093.4776-1.3273.4704-1.8272-.0162-.4027-.392-.4805-.9832-.2012-1.4688l.0851-.1296.1331-.1474 1.3061-1.225c.3018-.2832.3663-.7034.1919-1.0343l-.0767-.1195-.124-.1375-7.9156-7.5721c-.1779-.1693-.4238-.2655-.6815-.2655-.1539 0-.3044.0343-.4301.0922l-.1165.0653-.1326.1059-7.9113 7.5679c-.3004.2915-.3661.7179-.1968 1.0519l.0744.1205.1159.1335 7.9156 7.5721c.1778.1693.4238.2656.6814.2656.1542 0 .3047-.0345.4311-.0932l.1176-.0663.1365-.1096 1.8563-1.7558-4.226-4.0617c-1.2561-1.1845-1.3968-3.0475-.3698-4.3916l.1473-.1799.2228-.2306 1.3001-1.2252c.5081-.4788 1.3262-.4734 1.8273.012.4037.391.483.982.2049 1.4683l-.0848.1298-.1327.1477-1.2998 1.225c-.3007.2835-.365.706-.1911 1.0381l.0764.1198.1235.1377 7.8773 7.572c.1757.1681.418.2635.6715.2635.1517 0 .2998-.0342.4242-.0922l.1158-.0656.135-.109 7.9658-7.5624c.2991-.2916.3652-.7203.1983-1.0537l-.0735-.1201-.1126-.131-7.9815-7.5775c-.1757-.1681-.4179-.2634-.6715-.2634Z"/></g><defs><clipPath id="a"><path fill="#fff" d="M0 0h56v56H0z"/></clipPath></defs></svg>