<svg xmlns="http://www.w3.org/2000/svg" width="56" height="56" fill="none"><g clip-path="url(#a)"><path fill="#D9D9D9" fill-opacity=".01" d="M0 0h56v56H0z"/><path fill="#0074BD" fill-rule="evenodd" d="M20.2731 43.2167s-2.1343 1.2422 1.5207 1.6614c4.4285.5056 6.6915.4328 11.5703-.4894 0 0 1.2853.804 3.0772 1.5004-10.9405 4.6873-24.7607-.2716-16.1682-2.6724ZM18.9355 37.099s-2.3941 1.7725 1.2636 2.1506c4.731.4884 8.4658.5285 14.9323-.716 0 0 .8923.9064 2.2975 1.4017-13.2257 3.8686-27.95638.3044-18.4934-2.8363Z" clip-rule="evenodd"/><path fill="#EA2D2E" fill-rule="evenodd" d="M30.2052 26.7199c2.6971 3.1047-.7073 5.8963-.7073 5.8963s6.8445-3.5327 3.7018-7.9586c-2.9362-4.1256-5.1873-6.175 6.9998-13.2427.0001 0-19.1307 4.7768-9.9943 15.305Z" clip-rule="evenodd"/><path fill="#0074BD" fill-rule="evenodd" d="M44.6747 47.7424s1.58 1.3025-1.7402 2.3097c-6.3135 1.9123-26.2822 2.4891-31.8286.0766-1.99235-.8679 1.7457-2.0707 2.9218-2.3247 1.2263-.2653 1.9265-.2169 1.9265-.2169-2.2174-1.5614-14.33191 3.0667-6.15282 4.394 22.30472 3.6154 40.65812-1.6284 34.87332-4.2387ZM21.3003 30.7595s-10.156 2.4129-3.5964 3.2899c2.7706.3707 8.2904.2854 13.4357-.1463 4.2038-.3528 8.4226-1.1074 8.4226-1.1074s-1.4812.6354-2.5536 1.3673c-10.3154 2.7131-30.239 1.4495-24.5024-1.3243 4.8493-2.3459 8.7941-2.0792 8.7941-2.0792ZM39.5202 40.9428c10.4852-5.4471 5.6367-10.6823 2.2527-9.9772-.8275.1727-1.1987.3223-1.1987.3223s.3083-.483.8954-.6908c6.6946-2.3525 11.8421 6.9408-2.1589 10.6214-.0002 0 .1609-.1459.2095-.2757Z" clip-rule="evenodd"/><path fill="#EA2D2E" fill-rule="evenodd" d="M33.1999 0s5.8055 5.80892-5.5082 14.7389c-9.0728 7.1661-2.0686 11.2505-.0032 15.9196-5.2965-4.7783-9.1814-8.9853-6.5756-12.9001C24.9394 12.0127 35.5417 9.22603 33.1999 0Z" clip-rule="evenodd"/><path fill="#0074BD" fill-rule="evenodd" d="M22.3312 55.7079c10.0623.6433 25.5184-.358 25.8842-5.1197 0 0-.7031 1.8051-8.3167 3.2373-8.5892 1.6171-19.1855 1.4288-25.4677.3915 0 0 1.287 1.0653 7.9002 1.4909Z" clip-rule="evenodd"/></g><defs><clipPath id="a"><path fill="#fff" d="M0 0h56v56H0z"/></clipPath></defs></svg>