<svg xmlns="http://www.w3.org/2000/svg" width="56" height="56" fill="none"><g clip-path="url(#a)"><path fill="#D9D9D9" fill-opacity=".01" d="M0 0h56v56H0z"/><path fill="#E0EAF5" fill-rule="evenodd" d="M32.8679 7.00873c6.2954-.00219 12.5911-.02134 18.8866.00519 3.7426.01532 4.7978 1.26587 3.991 4.96198-2.3627 10.8246-4.7784 21.6382-7.2267 32.4439-.7742 3.4155-2.5531 4.8146-6.146 4.8252-12.5912.0375-25.1823.0416-37.77312-.0016C.484168 49.2289-.5984 47.835.288283 43.9348 2.69417 33.3425 5.11292 22.7534 7.55109 12.1685c.92882-4.03371 2.32464-5.14117 6.42971-5.15293 6.2957-.01779 12.5914-.00466 18.8871-.00684Z" clip-rule="evenodd"/><path fill="#2671BE" fill-rule="evenodd" d="M23.3541 47.9863c-6.2963-.0022-12.5928.0268-18.88876-.0145-3.19271-.0208-3.773258-.7743-3.05456-3.8969 2.43654-10.5904 4.95159-21.1631 7.33395-31.7655.63881-2.84363 2.01687-4.10047 5.06347-4.07229 12.5914.11682 25.185.03748 37.7772.05034 3.158.00301 3.6882.67849 2.9793 3.88135-2.3017 10.398-4.6178 20.7931-6.9747 31.1789-.8821 3.8868-1.8981 4.6285-5.9874 4.6375-6.0828.0128-12.166.0033-18.2485.0011Z" clip-rule="evenodd"/><path fill="#FDFDFE" fill-rule="evenodd" d="M28.7117 27.2317c-.4222-.4952-.8856-1.0653-1.3764-1.6103-2.7832-3.0915-5.5417-6.206-8.3744-9.2512-1.2962-1.3936-1.7093-2.7471-.1527-4.1226 1.5384-1.3597 3.0499-1.2394 4.4611.325 3.93 4.3552 7.8554 8.7152 11.8505 13.0105 1.4916 1.6043 1.1441 2.6951-.4987 3.8838-6.3058 4.5642-12.5761 9.1779-18.8395 13.8003-1.4079 1.0394-2.7501 1.2996-3.8873-.2355-1.2547-1.6932-.0939-2.7006 1.2075-3.6482 4.6545-3.3903 9.3-6.7931 13.9254-10.2228.6443-.4776 1.5693-.7561 1.6845-1.929Z" clip-rule="evenodd"/><path fill="#FCFDFD" fill-rule="evenodd" d="M30.7052 43.6106c-1.6951 0-3.3927.0583-5.084-.0186-1.3493-.061-2.1613-.815-2.1443-2.2363.0164-1.3438.6938-2.3542 2.0417-2.3906 3.7049-.0993 7.4152-.0779 11.1215-.0054 1.1777.023 2.0472.7904 2.0401 2.0177-.0085 1.4078-.7494 2.4986-2.2571 2.5894-1.8998.1149-3.8113.0285-5.7176.0285-.0003.0046-.0003.0101-.0003.0153Z" clip-rule="evenodd"/></g><defs><clipPath id="a"><path fill="#fff" d="M0 0h56v56H0z"/></clipPath></defs></svg>