<svg xmlns="http://www.w3.org/2000/svg" width="56" height="56" fill="none"><g clip-path="url(#a)"><path fill="#D9D9D9" fill-opacity=".01" d="M0 0h56v56H0z"/><path fill="#387EB8" d="M28 14.6087H6.08696S0 14.6087 0 28s6.08696 13.3913 6.08696 13.3913h6.08694v-6.087c0-4.8695 3.6522-8.5217 8.5218-8.5217h14.6006c3.6602 0 6.095-2.4348 6.1454-6.1454.0504-3.7106-.0504-14.55024-.0504-14.55024S41.3913 0 28 0 14.6087 6.08696 14.6087 6.08696v6.08694H28v2.4348Z"/><path fill="#FFC331" d="M28.0003 41.3916h21.913s6.087 0 6.087-13.3913c0-13.3914-6.087-13.3914-6.087-13.3914h-6.087v6.087c0 4.8696-3.6521 8.5217-8.5217 8.5217H20.6959c-3.6522 0-6.087 2.4348-6.087 6.087v14.6087s0 6.087 13.3914 6.087c13.3913 0 13.3913-6.087 13.3913-6.087v-6.087H28.0003v-2.4347Z"/><path fill="#fff" d="M20.6956 8.52148c1.3447 0 2.4348-1.09009 2.4348-2.43478s-1.0901-2.43478-2.4348-2.43478c-1.3446 0-2.4347 1.09009-2.4347 2.43478s1.0901 2.43478 2.4347 2.43478ZM35.3046 52.3483c1.3447 0 2.4348-1.0901 2.4348-2.4348s-1.0901-2.4347-2.4348-2.4347-2.4348 1.09-2.4348 2.4347c0 1.3447 1.0901 2.4348 2.4348 2.4348Z"/></g><defs><clipPath id="a"><path fill="#fff" d="M0 0h56v56H0z"/></clipPath></defs></svg>