<svg xmlns="http://www.w3.org/2000/svg" width="56" height="56" fill="none"><g clip-path="url(#a)"><path fill="#D9D9D9" fill-opacity=".01" d="M0 0h56v56H0z"/><path fill="#4EC1E0" d="M27.7826 33.2988c2.7566 0 4.9913-2.2347 4.9913-4.9913 0-2.7567-2.2347-4.9913-4.9913-4.9913-2.7566 0-4.9913 2.2346-4.9913 4.9913 0 2.7566 2.2347 4.9913 4.9913 4.9913Z"/><path stroke="#4EC1E0" stroke-width="2" d="M27.7826 38.5335c14.7916 0 26.7826-4.5783 26.7826-10.226 0-5.6478-11.991-10.2261-26.7826-10.2261C12.991 18.0814 1 22.6597 1 28.3075c0 5.6477 11.991 10.226 26.7826 10.226Z"/><path stroke="#4EC1E0" stroke-width="2" d="M18.9266 33.4205c7.3958 12.8099 17.3563 20.9052 22.2473 18.0814 4.8911-2.8239 2.8606-15.4976-4.5352-28.3075C29.2429 10.3845 19.2824 2.28919 14.3913 5.11304 9.50026 7.9369 11.5308 20.6106 18.9266 33.4205Z"/><path stroke="#4EC1E0" stroke-width="2" d="M18.9266 23.1944c-7.3959 12.8099-9.42635 25.4836-4.5353 28.3075 4.8911 2.8238 14.8516-5.2715 22.2474-18.0814 7.3958-12.8099 9.4263-25.4836 4.5352-28.30745-4.891-2.82386-14.8515 5.27145-22.2473 18.08135Z"/></g><defs><clipPath id="a"><path fill="#fff" d="M0 0h56v56H0z"/></clipPath></defs></svg>
