<svg xmlns="http://www.w3.org/2000/svg" width="56" height="56" fill="none"><g clip-path="url(#a)"><path fill="#D9D9D9" fill-opacity=".01" d="M0 0h56v56H0z"/><path fill="#F05138" d="M55.4276 15.3534c-.0033-.5575-.0095-1.1147-.0249-1.6728-.0324-1.2141-.1042-2.4392-.32-3.6403-.219-1.21974-.5769-2.35393-1.141-3.46198-.5538-1.08817-1.2776-2.08395-2.1412-2.94747-.8633-.86352-1.8591-1.58732-2.9477-2.14134C47.7457.926053 46.6113.568213 45.3926.349253c-1.2017-.21644-2.4268-.287746-3.6418-.3206-.5579-.01512-1.1152-.021466-1.6728-.02492C39.416 0 38.7537 0 38.0919 0H17.3395c-.6624 0-1.324 0-1.9857.003827-.5579.003453-1.1158.0098-1.6728.02492-.3037.008213-.6081.018853-.9127.033506-.9135.044054-1.8284.124787-2.7293.287094-.91401.164266-1.78071.40656-2.62388.755163-.28103.1161-.55953.24416-.83636.385-.81648.41552-1.58088.92652-2.27612 1.5203-.23175.19796-.45584.40507-.67163.62095-.8637.86352-1.5876 1.85929-2.14134 2.94747C.925561 7.68628.568095 8.82047.348948 10.0402c-.2156 1.2011-.28728 2.4262-.319947 3.6403-.015306.5582-.021746 1.1154-.025386 1.6728-.0042.6621-.00364 1.3243-.00364 1.9863v20.7521c0 .6625-.000654 1.3241.00364 1.9867.00364.5574.01008 1.1146.025386 1.6718.032667 1.2148.104254 2.4401.319947 3.6407.219147 1.2194.576613 2.3546 1.140722 3.4624.55374 1.0884 1.27764 2.0839 2.14134 2.9471.86306.8639 1.85911 1.5876 2.94784 2.142 1.10722.5635 2.2415.9209 3.46045 1.1399 1.201.2161 2.427.288 3.6418.3205.557.0148 1.1149.0214 1.6728.0246.6617.0048 1.3233.0041 1.9857.0041h20.7523c.6618 0 1.3241.0007 1.986-.0041.5576-.0032 1.1149-.0098 1.6728-.0246 1.215-.0325 2.4401-.1045 3.6418-.3205 1.2187-.219 2.3531-.5765 3.4602-1.1399 1.0886-.5543 2.0844-1.2781 2.9477-2.142.8636-.8633 1.5876-1.8587 2.1412-2.9471.5641-1.1078.922-2.2429 1.141-3.4624.2158-1.2006.2876-2.4259.32-3.6407.0153-.5572.0215-1.1143.0249-1.6718.0043-.6626.0039-1.3242.0039-1.9867V17.3396c.0001-.662.0004-1.3242-.0038-1.9862Z"/><path fill="#fff" d="M43.9232 34.2167c-.0013-.0017-.0025-.0029-.0039-.0045.0613-.2087.1246-.4161.1783-.63 2.3007-9.1662-3.3144-20.0031-12.8162-25.70907 4.1639 5.64467 6.005 12.48177 4.3692 18.46087-.1458.5333-.3212 1.0451-.5151 1.5426-.2103-.1382-.4754-.2951-.8314-.4914 0 0-9.4517-5.8358-19.6959-16.158-.2688-.271 5.4626 8.1918 11.9671 15.0639-3.0645-1.7199-11.6049-7.9337-17.01151-12.8822.66421 1.1078 1.45431 2.1745 2.32281 3.2014 4.515 5.726 10.4031 12.7908 17.4573 18.2158-4.9563 3.0332-11.9598 3.269-18.9328.0032-1.72473-.8083-3.34612-1.7835-4.84701-2.8916 2.95166 4.7213 7.49761 8.7947 13.03051 11.1728 6.5982 2.8355 13.1597 2.6433 18.0466.0465l-.0038.0056c.0223-.0141.0506-.0295.0738-.0438.2007-.1079.3998-.2178.5946-.3338 2.348-1.2187 6.9857-2.4552 9.475 2.3882.6097 1.1854 1.9052-5.0963-2.8576-10.9565Z"/></g><defs><clipPath id="a"><path fill="#fff" d="M0 0h56v56H0z"/></clipPath></defs></svg>