<svg width="56" height="56" xmlns="http://www.w3.org/2000/svg"><g clip-path="url(#a)"><path fill="#D9D9D9" fill-opacity=".01" d="M0 0h56v56H0z"/><path d="M50.5312 0H5.46875C2.44844 0 0 2.44844 0 5.46875V50.5312C0 53.5516 2.44844 56 5.46875 56H50.5312C53.5516 56 56 53.5516 56 50.5312V5.46875C56 2.44844 53.5516 0 50.5312 0Z" fill="#4377C1"/><path fill-rule="evenodd" clip-rule="evenodd" d="M34.6652 44.562v5.4754c.8901.4563 1.9428.7985 3.1582 1.0266 1.2154.2282 2.4963.3422 3.8429.3422 1.3124 0 2.559-.1254 3.7402-.3764 1.1811-.2509 2.2168-.6645 3.1069-1.2405.8901-.576 1.5948-1.329 2.114-2.2586.5192-.9297.7788-2.0789.7788-3.4478 0-.9924-.1483-1.8622-.445-2.6093-.2967-.7472-.7246-1.4116-1.2838-1.9934-.5592-.5817-1.2296-1.1037-2.0113-1.5657-.7817-.462-1.6633-.8983-2.6447-1.3089-.7189-.2966-1.3637-.5846-1.9343-.864-.5706-.2796-1.0556-.5647-1.455-.8556-.3995-.2909-.7076-.5989-.9244-.924-.2167-.3251-.3252-.693-.3252-1.1037 0-.3763.097-.7157.291-1.018.194-.3023.4679-.5618.8216-.7786.3539-.2166.7874-.385 1.3009-.5047.5137-.1198 1.0842-.1796 1.7119-.1796.4564 0 .9385.0342 1.4463.1026.5079.0684 1.0185.174 1.5322.3165.5135.1426 1.0127.3223 1.4977.539.485.2168.9329.4677 1.3437.7529v-5.1161c-.833-.3194-1.7431-.5561-2.7302-.7101-.9871-.154-2.1198-.231-3.3979-.231-1.301 0-2.5334.1398-3.6974.4193-1.1639.2794-2.1881.7157-3.0726 1.3089-.8845.5932-1.5834 1.3489-2.0969 2.2672-.5135.9182-.7703 2.0161-.7703 3.2937 0 1.6312.4707 3.0229 1.4122 4.1751.9414 1.152 2.3708 2.1273 4.288 2.9259.7531.308 1.455.6102 2.1055.9068.6504.2966 1.2125.6046 1.686.924.4736.3194.8473.6673 1.1213 1.0438.2739.3763.4108.8041.4108 1.2833 0 .3536-.0856.6815-.2568.9838-.1712.3023-.4308.5646-.7789.7871-.348.2224-.7817.3963-1.3009.5218-.5193.1256-1.1269.1882-1.823.1882-1.1869 0-2.3622-.2081-3.5263-.6245-1.164-.4163-2.2424-1.0408-3.2352-1.8736Zm-9.2049-13.4905h7.0241v-4.4934H12.9062v4.4934h6.9898v20.0066h5.5643V31.0715Z" fill="#fff"/></g><defs><clipPath id="a"><path fill="#fff" d="M0 0h56v56H0z"/></clipPath></defs></svg>